<?xml version="1.0" standalone="no"?>
<!DOCTYPE svg PUBLIC "-//W3C//DTD SVG 20010904//EN"
 "http://www.w3.org/TR/2001/REC-SVG-20010904/DTD/svg10.dtd">
<svg version="1.0" xmlns="http://www.w3.org/2000/svg"
 width="225.000000pt" height="225.000000pt" viewBox="0 0 225.000000 225.000000"
 preserveAspectRatio="xMidYMid meet">

<g transform="translate(0.000000,225.000000) scale(0.100000,-0.100000)"
fill="#000000" stroke="none">
<path d="M907 2214 c-420 -76 -783 -403 -886 -798 -18 -69 -21 -109 -21 -292
0 -196 2 -218 25 -298 88 -303 300 -549 597 -691 646 -309 1430 43 1604 723
24 91 25 109 21 297 -3 185 -6 206 -31 285 -59 182 -144 319 -280 456 -170
171 -374 277 -610 319 -109 19 -313 18 -419 -1z m321 -64 c260 -28 475 -127
660 -304 141 -135 236 -298 274 -470 17 -76 19 -115 15 -241 -5 -175 -25 -260
-92 -402 -59 -125 -105 -193 -199 -291 -101 -106 -190 -171 -307 -226 -243
-115 -466 -131 -746 -55 l-113 31 0 589 0 589 40 0 40 0 0 -58 0 -59 39 37
c170 162 435 104 539 -118 24 -51 27 -69 27 -162 0 -93 -4 -112 -27 -163 -60
-127 -179 -202 -313 -195 -87 4 -145 31 -212 98 l-50 50 -6 -158 c-4 -86 -7
-209 -7 -274 l0 -116 108 -26 c143 -34 232 -41 333 -26 94 13 260 65 340 106
253 127 442 381 505 676 17 82 19 257 4 339 -24 129 -78 259 -143 344 -39 52
-159 175 -170 175 -4 0 -51 -32 -103 -72 -85 -65 -94 -75 -94 -105 0 -21 6
-36 19 -42 25 -14 45 -65 37 -97 -18 -71 -120 -101 -171 -50 -13 13 -27 36
-31 50 -8 32 11 82 39 101 15 10 20 26 21 68 l1 54 98 72 c53 40 97 77 97 82
0 4 -12 15 -27 22 -25 14 -31 11 -178 -94 l-152 -109 -165 0 c-163 0 -165 0
-186 -25 -66 -75 -182 -39 -182 57 0 90 107 132 172 68 l30 -30 137 0 138 0
134 96 c74 53 135 98 137 99 1 1 -16 8 -37 15 l-40 13 -89 -67 -89 -66 -80 0
c-67 0 -83 -3 -98 -20 -24 -26 -78 -35 -116 -20 -33 14 -59 55 -59 94 0 35 45
84 84 92 37 6 93 -16 103 -42 12 -32 152 -11 208 31 33 26 35 30 17 36 -10 4
-63 13 -117 19 -303 36 -647 -111 -850 -363 -80 -98 -165 -266 -197 -387 -32
-122 -32 -322 0 -433 46 -162 122 -292 248 -426 l74 -79 -19 -43 -18 -44 -85
85 c-142 141 -252 332 -289 500 -27 125 -23 353 9 472 81 300 278 545 550 685
117 61 193 87 292 102 154 23 170 23 288 11z m-748 -660 l0 -120 85 0 85 0 0
-35 0 -35 -85 0 -85 0 0 -249 c0 -137 4 -261 9 -274 18 -47 95 -58 164 -22 27
14 28 13 41 -18 17 -39 6 -50 -68 -72 -65 -20 -102 -19 -153 4 -71 33 -73 42
-73 356 l0 275 -50 0 -50 0 0 35 0 35 50 0 50 0 0 120 0 120 40 0 40 0 0 -120z
m1333 -126 c25 -8 62 -30 84 -49 l38 -33 -24 -26 -25 -26 -25 25 c-59 56 -222
75 -301 35 -68 -35 -91 -115 -47 -166 19 -21 50 -33 172 -65 164 -43 226 -73
252 -122 21 -40 21 -122 0 -164 -23 -43 -82 -90 -140 -109 -74 -25 -221 -15
-312 20 -116 44 -132 65 -91 119 13 16 17 15 66 -18 160 -107 389 -79 407 51
10 80 -26 106 -215 153 -199 48 -242 80 -242 177 0 30 6 69 14 87 15 36 75 93
115 109 79 30 188 31 274 2z"/>
<path d="M1020 1962 c-36 -12 -39 -48 -5 -64 19 -8 28 -8 40 2 32 26 4 76 -35
62z"/>
<path d="M860 1775 c-22 -26 -8 -50 30 -50 25 0 36 5 38 18 5 23 -15 47 -38
47 -10 0 -23 -7 -30 -15z"/>
<path d="M1491 1562 c-14 -27 8 -55 40 -50 19 2 24 9 24 33 0 25 -4 31 -27 33
-18 2 -30 -3 -37 -16z"/>
<path d="M984 1299 c-47 -13 -125 -70 -151 -108 -21 -31 -23 -45 -23 -163 0
-148 5 -162 75 -227 60 -55 106 -74 180 -74 106 -1 191 57 238 162 31 67 30
189 -1 253 -63 127 -196 193 -318 157z"/>
</g>
</svg>
